<svg width="14" height="14" viewBox="0 0 14 14" fill="none" xmlns="http://www.w3.org/2000/svg">
<path fill-rule="evenodd" clip-rule="evenodd" d="M8.74984 11.0827C8.74984 11.6977 8.27392 12.2016 7.67024 12.2461L7.58317 12.2493H6.4165C5.80146 12.2493 5.29757 11.7734 5.25304 11.1698L5.24984 11.0827H8.74984ZM6.99995 1.16602C9.20814 1.16602 11.0069 2.91881 11.0809 5.10897L11.0833 5.24935V7.44496L12.1461 9.57074C12.3493 9.97707 12.0776 10.4517 11.6392 10.496L11.5722 10.4993H2.42765C1.97336 10.4993 1.67033 10.0441 1.82678 9.63214L1.85373 9.57074L2.9166 7.44496V5.24935C2.9166 2.99419 4.74477 1.16602 6.99995 1.16602ZM6.99995 2.33268C5.43149 2.33268 4.1522 3.5707 4.08596 5.12283L4.08326 5.24935V7.44496C4.08326 7.58986 4.05627 7.73315 4.00401 7.86764L3.9601 7.96675L3.27712 9.33268H10.7227L10.0398 7.96675C9.97499 7.83711 9.93504 7.69687 9.92165 7.55322L9.91662 7.44496V5.24935C9.91662 3.63852 8.61077 2.33268 6.99995 2.33268Z" fill="black"/>
</svg>
