<svg xmlns="http://www.w3.org/2000/svg" xmlns:xlink="http://www.w3.org/1999/xlink" width="212" height="198.348" viewBox="0 0 212 198.348">
  <defs>
    <filter id="stepOut_" x="0" y="40.348" width="212" height="158" filterUnits="userSpaceOnUse">
      <feOffset dy="3" input="SourceAlpha"/>
      <feGaussianBlur stdDeviation="12" result="blur"/>
      <feFlood flood-color="#f3e8e8" flood-opacity="0.329"/>
      <feComposite operator="in" in2="blur"/>
      <feComposite in="SourceGraphic"/>
    </filter>
    <filter id="_Path_" x="15.568" y="0.22" width="104.562" height="110.776" filterUnits="userSpaceOnUse">
      <feOffset dx="-13" dy="-13" input="SourceAlpha"/>
      <feGaussianBlur stdDeviation="10" result="blur-2"/>
      <feFlood flood-opacity="0.161"/>
      <feComposite operator="in" in2="blur-2"/>
      <feComposite in="SourceGraphic"/>
    </filter>
    <filter id="_Path_2" x="42.792" y="0.115" width="104.572" height="110.772" filterUnits="userSpaceOnUse">
      <feOffset dx="-13" dy="-13" input="SourceAlpha"/>
      <feGaussianBlur stdDeviation="10" result="blur-3"/>
      <feFlood flood-opacity="0.161"/>
      <feComposite operator="in" in2="blur-3"/>
      <feComposite in="SourceGraphic"/>
    </filter>
    <filter id="_Path_3" x="70.016" y="0" width="104.575" height="110.772" filterUnits="userSpaceOnUse">
      <feOffset dx="-13" dy="-13" input="SourceAlpha"/>
      <feGaussianBlur stdDeviation="10" result="blur-4"/>
      <feFlood flood-opacity="0.161"/>
      <feComposite operator="in" in2="blur-4"/>
      <feComposite in="SourceGraphic"/>
    </filter>
  </defs>
  <g id="Group_127" data-name="Group 127" transform="translate(-108 -255.826)">
    <g transform="matrix(1, 0, 0, 1, 108, 255.83)" filter="url(#stepOut_)">
      <text id="stepOut_2" data-name="stepOut " transform="translate(36 143.35)" fill="#fff" font-size="65" font-family="Segoe UI" font-weight="800" font-style="italic"><tspan x="0" y="0">stepOut</tspan></text>
    </g>
    <g id="_Group_" data-name="&lt;Group&gt;" transform="translate(165 298.826)">
      <g id="_Group_2" data-name="&lt;Group&gt;" transform="translate(0 0.22)">
        <g id="_Group_3" data-name="&lt;Group&gt;" opacity="0.4">
          <path id="_Path_4" data-name="&lt;Path&gt;" d="M307.3,254.8l40.836,23.357a1.875,1.875,0,0,1,0,3.24L307.5,305.069a1.867,1.867,0,0,1-2.822-1.594l-.183-47.054A1.867,1.867,0,0,1,307.3,254.8Z" transform="translate(-304.5 -254.555)"/>
        </g>
        <g id="_Group_4" data-name="&lt;Group&gt;" transform="translate(1.568)">
          <g transform="matrix(1, 0, 0, 1, -58.57, -43.22)" filter="url(#_Path_)">
            <path id="_Path_5" data-name="&lt;Path&gt;" d="M313.3,254.8l40.836,23.357a1.875,1.875,0,0,1,0,3.24L313.5,305.069a1.867,1.867,0,0,1-2.822-1.594l-.183-47.054A1.867,1.867,0,0,1,313.3,254.8Z" transform="translate(-251.93 -211.33)" fill="#fff"/>
          </g>
        </g>
      </g>
      <g id="_Group_5" data-name="&lt;Group&gt;" transform="translate(27.224 0.115)">
        <g id="_Group_6" data-name="&lt;Group&gt;" opacity="0.4">
          <path id="_Path_6" data-name="&lt;Path&gt;" d="M411.5,254.4l40.836,23.357a1.865,1.865,0,0,1,0,3.24L411.7,304.669a1.883,1.883,0,0,1-2.822-1.62l-.183-47.028A1.867,1.867,0,0,1,411.5,254.4Z" transform="translate(-408.7 -254.155)"/>
          <path id="_Path_7" data-name="&lt;Path&gt;" d="M411.5,254.4l40.836,23.357a1.865,1.865,0,0,1,0,3.24L411.7,304.669a1.883,1.883,0,0,1-2.822-1.62l-.183-47.028A1.867,1.867,0,0,1,411.5,254.4Z" transform="translate(-408.7 -254.155)" fill="none" stroke="#000" stroke-width="2"/>
        </g>
        <g id="_Group_7" data-name="&lt;Group&gt;" transform="translate(1.568)">
          <g transform="matrix(1, 0, 0, 1, -85.79, -43.12)" filter="url(#_Path_2)">
            <path id="_Path_8" data-name="&lt;Path&gt;" d="M417.5,254.4l40.836,23.357a1.865,1.865,0,0,1,0,3.24L417.7,304.669a1.883,1.883,0,0,1-2.822-1.62l-.183-47.028A1.867,1.867,0,0,1,417.5,254.4Z" transform="translate(-328.91 -211.04)" fill="#ff4f65"/>
          </g>
          <path id="_Path_9" data-name="&lt;Path&gt;" d="M417.5,254.4l40.836,23.357a1.865,1.865,0,0,1,0,3.24L417.7,304.669a1.883,1.883,0,0,1-2.822-1.62l-.183-47.028A1.867,1.867,0,0,1,417.5,254.4Z" transform="translate(-414.7 -254.155)" fill="none"/>
        </g>
      </g>
      <g id="_Group_8" data-name="&lt;Group&gt;" transform="translate(54.448)" opacity="0.4">
        <path id="_Path_10" data-name="&lt;Path&gt;" d="M515.722,253.971l40.81,23.331a1.875,1.875,0,0,1,.026,3.24l-40.653,23.7a1.872,1.872,0,0,1-2.8-1.62l-.209-47.028A1.878,1.878,0,0,1,515.722,253.971Z" transform="translate(-512.9 -253.713)"/>
      </g>
      <g id="_Group_9" data-name="&lt;Group&gt;" transform="translate(56.015)">
        <g transform="matrix(1, 0, 0, 1, -113.02, -43)" filter="url(#_Path_3)">
          <path id="_Path_11" data-name="&lt;Path&gt;" d="M521.722,253.971l40.81,23.331a1.875,1.875,0,0,1,.026,3.24l-40.653,23.7a1.872,1.872,0,0,1-2.8-1.62l-.209-47.028A1.878,1.878,0,0,1,521.722,253.971Z" transform="translate(-405.88 -210.71)" fill="#fff"/>
        </g>
      </g>
    </g>
  </g>
</svg>
