<svg xmlns="http://www.w3.org/2000/svg" width="20" height="20" viewBox="0 0 20 20">
  <path id="building" d="M7.5,0H4.167A4.167,4.167,0,0,0,0,4.167V15.833A4.167,4.167,0,0,0,4.167,20h7.5V4.167A4.167,4.167,0,0,0,7.5,0ZM4.167,15.833H3.333a.833.833,0,0,1,0-1.667h.833a.833.833,0,1,1,0,1.667Zm0-3.333H3.333a.833.833,0,0,1,0-1.667h.833a.833.833,0,1,1,0,1.667Zm0-3.333H3.333a.833.833,0,1,1,0-1.667h.833a.833.833,0,1,1,0,1.667Zm0-3.333H3.333a.833.833,0,1,1,0-1.667h.833a.833.833,0,1,1,0,1.667Zm4.167,10H7.5a.833.833,0,1,1,0-1.667h.833a.833.833,0,0,1,0,1.667Zm0-3.333H7.5a.833.833,0,1,1,0-1.667h.833a.833.833,0,0,1,0,1.667Zm0-3.333H7.5A.833.833,0,1,1,7.5,7.5h.833a.833.833,0,0,1,0,1.667Zm0-3.333H7.5a.833.833,0,1,1,0-1.667h.833a.833.833,0,0,1,0,1.667Zm7.5-1.667h-2.5V20h2.5A4.172,4.172,0,0,0,20,15.833v-7.5a4.172,4.172,0,0,0-4.167-4.167Zm.833,11.667A.833.833,0,1,1,17.5,15,.833.833,0,0,1,16.667,15.833Zm0-3.333a.833.833,0,1,1,.833-.833A.833.833,0,0,1,16.667,12.5Zm0-3.333a.833.833,0,1,1,.833-.833A.833.833,0,0,1,16.667,9.167Z" fill="#fff"/>
</svg>
