<svg id="camera" xmlns="http://www.w3.org/2000/svg" width="18.838" height="18.838" viewBox="0 0 18.838 18.838">
  <path id="Path_750" data-name="Path 750" d="M15.26,2.355,14.151.917A2.373,2.373,0,0,0,12.286,0H9.253A2.373,2.373,0,0,0,7.388.917L6.279,2.355Z" transform="translate(-1.35)" fill="#b48dd2"/>
  <circle id="Ellipse_27" data-name="Ellipse 27" cx="3.5" cy="3.5" r="3.5" transform="translate(6.419 7.419)" fill="#b48dd2"/>
  <path id="Path_751" data-name="Path 751" d="M14.914,5H3.925A3.929,3.929,0,0,0,0,8.925v7.064a3.929,3.929,0,0,0,3.925,3.925H14.914a3.929,3.929,0,0,0,3.925-3.925V8.925A3.929,3.929,0,0,0,14.914,5ZM9.419,16.774a4.71,4.71,0,1,1,4.71-4.71,4.71,4.71,0,0,1-4.71,4.71Z" transform="translate(0 -1.075)" fill="#b48dd2"/>
</svg>
