<svg width="25" height="24" viewBox="0 0 25 24" fill="none" xmlns="http://www.w3.org/2000/svg">
<g clip-path="url(#clip0_690_18326)">
<path d="M16.647 3.82764C17.6654 3.82764 18.6107 4.33193 19.169 5.16103L19.2754 5.33113L21.2869 8.8009H22.4599C22.655 8.8009 22.8177 8.93728 22.8554 9.11858L22.8636 9.19876V9.6716C22.8636 10.0002 22.6594 10.2909 22.3565 10.4103L22.2282 10.4494C22.6062 11.2232 22.7747 12.0808 22.7167 12.9385L22.6889 13.2242L21.9572 18.9942C21.8376 19.9373 21.0608 20.6574 20.1139 20.7306L19.9546 20.7367H18.8272C17.7632 20.7367 16.8916 19.9252 16.8146 18.8959L16.809 18.7474H8.73631C8.73631 19.7962 7.91301 20.6553 6.86875 20.7313L6.71813 20.7367H5.59075C4.62651 20.7367 3.80521 20.0662 3.61409 19.1492L3.58816 18.9942L2.85644 13.2242C2.74781 12.3676 2.86764 11.5017 3.19892 10.7104L3.31716 10.4494L3.29324 10.4436C2.96981 10.3639 2.73326 10.0981 2.68918 9.77955L2.68176 9.6716V9.19876C2.68176 9.0065 2.82012 8.84608 3.00405 8.80898L3.0854 8.8009H4.2585L6.27001 5.33113C6.7753 4.45952 7.68848 3.90075 8.69579 3.83431L8.89842 3.82764H16.647ZM20.6024 11.8202C20.1044 12.356 19.4043 12.72 18.5842 12.7729L18.3768 12.7795H7.16854C6.25911 12.7795 5.48242 12.4006 4.94289 11.8202C4.85981 12.1196 4.82435 12.4311 4.8388 12.7433L4.85904 12.9774L5.59075 18.7474H6.71813V17.7528C6.71813 17.2427 7.10768 16.8223 7.60954 16.7648L7.72722 16.7581H17.8181C18.3356 16.7581 18.7621 17.1421 18.8204 17.6368L18.8272 17.7528V18.7474H19.9546L20.6863 12.9774C20.7357 12.5875 20.7063 12.1945 20.6024 11.8202ZM6.45331 13.673L9.2209 15.1461C9.59731 15.3465 9.44043 15.9106 9.01298 15.8938L6.67779 15.8017C6.13661 15.7803 5.70903 15.3416 5.70903 14.8078V14.1106C5.70903 13.734 6.11715 13.4941 6.45331 13.673ZM19.8363 14.1106V14.8078C19.8363 15.3416 19.4088 15.7803 18.8676 15.8017L16.5323 15.8938C16.1049 15.9106 15.948 15.3465 16.3245 15.1461L19.092 13.673C19.4282 13.4941 19.8363 13.734 19.8363 14.1106ZM16.647 5.81694H8.89842C8.5363 5.81694 8.20193 6.0082 8.02227 6.31811L6.29241 9.30206C5.90839 9.96514 6.39388 10.7902 7.16854 10.7902H18.3768C19.1516 10.7902 19.6373 9.96514 19.253 9.30206L17.5231 6.31811C17.3434 6.0082 17.009 5.81694 16.647 5.81694Z" fill="#969696"/>
</g>
<defs>
<clipPath id="clip0_690_18326">
<rect width="24" height="24" fill="white" transform="translate(0.5)"/>
</clipPath>
</defs>
</svg>
