<svg width="15" height="14" viewBox="0 0 15 14" fill="none" xmlns="http://www.w3.org/2000/svg">
<path fill-rule="evenodd" clip-rule="evenodd" d="M12.5835 1.75C13.2278 1.75 13.7502 2.27233 13.7502 2.91667V11.0833C13.7502 11.7277 13.2278 12.25 12.5835 12.25H3.25016C2.60583 12.25 2.0835 11.7277 2.0835 11.0833V2.91667C2.0835 2.27233 2.60583 1.75 3.25016 1.75H12.5835ZM12.5835 2.91667H3.25016V11.0833H12.5835V2.91667ZM10.8335 8.75C11.1557 8.75 11.4168 9.01116 11.4168 9.33333C11.4168 9.6325 11.1916 9.87905 10.9015 9.91274L10.8335 9.91667H5.00016C4.678 9.91667 4.41683 9.65551 4.41683 9.33333C4.41683 9.03417 4.64202 8.78762 4.93213 8.75392L5.00016 8.75H10.8335ZM6.75016 4.08333C7.39451 4.08333 7.91683 4.60567 7.91683 5.25V6.41667C7.91683 7.06102 7.39451 7.58333 6.75016 7.58333H5.5835C4.93916 7.58333 4.41683 7.06102 4.41683 6.41667V5.25C4.41683 4.60567 4.93916 4.08333 5.5835 4.08333H6.75016ZM10.8335 6.41667C11.1557 6.41667 11.4168 6.67782 11.4168 7C11.4168 7.32218 11.1557 7.58333 10.8335 7.58333H9.0835C8.76132 7.58333 8.50016 7.32218 8.50016 7C8.50016 6.67782 8.76132 6.41667 9.0835 6.41667H10.8335ZM6.75016 5.25H5.5835V6.41667H6.75016V5.25ZM10.8335 4.08333C11.1557 4.08333 11.4168 4.3445 11.4168 4.66667C11.4168 4.96582 11.1916 5.21238 10.9015 5.24608L10.8335 5.25H9.0835C8.76132 5.25 8.50016 4.98883 8.50016 4.66667C8.50016 4.36751 8.72535 4.12095 9.01547 4.08726L9.0835 4.08333H10.8335Z" fill="black"/>
</svg>
