<svg width="14" height="14" viewBox="0 0 14 14" fill="none" xmlns="http://www.w3.org/2000/svg">
<path fill-rule="evenodd" clip-rule="evenodd" d="M2.33366 2.33398C1.68933 2.33398 1.16699 2.85632 1.16699 3.50065V10.5007C1.16699 11.145 1.68933 11.6673 2.33366 11.6673H11.667C12.3113 11.6673 12.8337 11.145 12.8337 10.5007V3.50065C12.8337 2.85632 12.3113 2.33398 11.667 2.33398H2.33366ZM2.33366 3.50065H11.667V10.5007H2.33366V3.50065ZM2.91699 6.41732C2.91699 6.09514 3.17815 5.83398 3.50033 5.83398H9.33366C9.65583 5.83398 9.91699 6.09514 9.91699 6.41732C9.91699 6.73949 9.65583 7.00065 9.33366 7.00065H3.50033C3.17815 7.00065 2.91699 6.73949 2.91699 6.41732ZM3.50033 7.58398C3.17815 7.58398 2.91699 7.84514 2.91699 8.16732C2.91699 8.48949 3.17815 8.75065 3.50033 8.75065H10.5003C10.8225 8.75065 11.0837 8.48949 11.0837 8.16732C11.0837 7.84514 10.8225 7.58398 10.5003 7.58398H3.50033Z" fill="black"/>
</svg>
