<svg width="14" height="14" viewBox="0 0 14 14" fill="none" xmlns="http://www.w3.org/2000/svg">
<path fill-rule="evenodd" clip-rule="evenodd" d="M7.00033 1.16602C8.93332 1.16602 10.5003 2.73302 10.5003 4.66602C10.5003 5.12092 10.4133 5.55605 10.255 5.95524C11.741 6.35972 12.8336 7.7186 12.8336 9.33268C12.8336 11.2657 11.2666 12.8327 9.3336 12.8327C8.43702 12.8327 7.61913 12.4952 7.00033 11.9415C6.38112 12.4957 5.56341 12.8327 4.66699 12.8327C2.73399 12.8327 1.16699 11.2657 1.16699 9.33268C1.16699 7.71866 2.25953 6.35978 3.74543 5.9553C3.58726 5.55629 3.50033 5.12131 3.50033 4.66602C3.50033 2.73302 5.06733 1.16602 7.00033 1.16602ZM9.3336 6.99935C8.71264 6.99935 8.14838 7.24149 7.72984 7.63781C8.00833 8.14017 8.16699 8.71837 8.16699 9.33268C8.16699 9.94757 8.00844 10.5255 7.7299 11.0277C8.1485 11.4239 8.7127 11.666 9.3336 11.666C10.6222 11.666 11.6669 10.6213 11.6669 9.33268C11.6669 8.04404 10.6222 6.99935 9.3336 6.99935ZM4.40466 7.01393C3.23949 7.14431 2.33366 8.13271 2.33366 9.33268C2.33366 10.6213 3.37833 11.666 4.66699 11.666C5.95563 11.666 7.00033 10.6213 7.00033 9.33268C7.00033 8.90102 6.8836 8.49782 6.67984 8.15155C5.77965 8.06982 4.97789 7.64726 4.40466 7.01393ZM7.00033 2.33268C5.71166 2.33268 4.66699 3.37735 4.66699 4.66602C4.66699 5.86599 5.5728 6.85439 6.73794 6.98477C7.3106 6.35214 8.11263 5.92899 9.01318 5.84715C9.21693 5.5009 9.33366 5.09766 9.33366 4.66602C9.33366 3.37735 8.28897 2.33268 7.00033 2.33268Z" fill="black"/>
</svg>
