<svg width="14" height="14" viewBox="0 0 14 14" fill="none" xmlns="http://www.w3.org/2000/svg">
<path d="M11.0832 2.33398C12.0497 2.33398 12.8332 3.11749 12.8332 4.08398V9.91732C12.8332 10.8838 12.0497 11.6673 11.0832 11.6673H2.9165C1.95001 11.6673 1.1665 10.8838 1.1665 9.91732V4.08398C1.1665 3.11749 1.95001 2.33398 2.9165 2.33398H11.0832ZM11.6665 5.83398H2.33317V9.91732C2.33317 10.2165 2.55836 10.463 2.84848 10.4967L2.9165 10.5007H11.0832C11.3823 10.5007 11.6289 10.2755 11.6626 9.98535L11.6665 9.91732V5.83398ZM9.9165 7.58398C10.2387 7.58398 10.4998 7.84514 10.4998 8.16732C10.4998 8.46648 10.2747 8.71303 9.98454 8.74673L9.9165 8.75065H8.1665C7.84433 8.75065 7.58317 8.48949 7.58317 8.16732C7.58317 7.86816 7.80835 7.6216 8.09847 7.58791L8.1665 7.58398H9.9165ZM11.0832 3.50065H2.9165C2.59434 3.50065 2.33317 3.76182 2.33317 4.08398V4.66732H11.6665V4.08398C11.6665 3.76182 11.4053 3.50065 11.0832 3.50065Z" fill="black"/>
</svg>
