<svg width="25" height="25" viewBox="0 0 25 25" fill="none" xmlns="http://www.w3.org/2000/svg">
<path d="M3.25005 6.08777C3.87855 5.64849 4.82597 5.73274 5.39028 6.19876L4.74306 5.25802C4.22221 4.51519 4.40876 3.71152 5.15225 3.19C5.89575 2.67049 8.00255 4.06722 8.00255 4.06722C7.47702 3.31704 7.57531 2.36627 8.32549 1.84007C9.07568 1.31588 10.1107 1.49707 10.6362 2.24859L17.6032 12.0906L16.7153 20.699L9.30501 17.9964L2.84153 8.41321C2.31132 7.65835 2.49452 6.61731 3.25005 6.08777Z" fill="#E0AA94"/>
<path d="M1.80189 11.5631C1.80189 11.5631 1.04502 10.4599 2.1489 9.70367C3.25145 8.94747 4.00765 10.05 4.00765 10.05L7.51854 15.1703C7.63956 14.9683 7.77194 14.7691 7.91971 14.5725L3.04685 7.46716C3.04685 7.46716 2.29065 6.36462 3.39386 5.60842C4.49641 4.85222 5.25261 5.95476 5.25261 5.95476L9.83595 12.6389C10.0064 12.4998 10.181 12.3601 10.3608 12.223L5.04734 4.47311C5.04734 4.47311 4.29114 3.37057 5.39435 2.61437C6.4969 1.85816 7.2531 2.96071 7.2531 2.96071L12.5666 10.7093C12.7618 10.5896 12.955 10.486 13.1489 10.3763L8.18247 3.13388C8.18247 3.13388 7.42627 2.03134 8.52881 1.27513C9.63136 0.518932 10.3876 1.62148 10.3876 1.62148L15.6388 9.27977L16.4372 10.4445C13.1289 12.7138 12.814 16.9829 14.7041 19.7396C15.0819 20.2912 15.6335 19.9134 15.6335 19.9134C13.3649 16.6044 14.0576 12.8863 17.3665 10.6177L16.391 5.73545C16.391 5.73545 16.0266 4.44904 17.3124 4.08398C18.5988 3.71958 18.9639 5.006 18.9639 5.006L20.0905 8.35174C20.5371 9.67827 21.0125 11.0001 21.6417 12.2504C23.4182 15.7807 22.3571 20.1681 19.0073 22.4662C15.3533 24.9715 10.3581 24.0401 7.85218 20.3868L1.80189 11.5631Z" fill="#F7DECE"/>
<path d="M8.02336 21.3956C5.34891 21.3956 2.64637 18.6931 2.64637 16.0186C2.64637 15.6489 2.37558 15.35 2.00584 15.35C1.6361 15.35 1.30914 15.6489 1.30914 16.0186C1.30914 20.0303 4.01168 22.7329 8.02336 22.7329C8.3931 22.7329 8.69197 22.4059 8.69197 22.0362C8.69197 21.6664 8.3931 21.3956 8.02336 21.3956Z" fill="#5DADEC"/>
<path d="M4.68029 22.7048C2.67445 22.7048 1.33722 21.3675 1.33722 19.3617C1.33722 18.992 1.03835 18.6931 0.668606 18.6931C0.298863 18.6931 -7.62939e-06 18.992 -7.62939e-06 19.3617C-7.62939e-06 22.0362 2.00583 24.042 4.68029 24.042C5.05003 24.042 5.3489 23.7431 5.3489 23.3734C5.3489 23.0036 5.05003 22.7048 4.68029 22.7048ZM16.0467 1.30914C15.6776 1.30914 15.3781 1.60868 15.3781 1.97776C15.3781 2.34683 15.6776 2.64637 16.0467 2.64637C18.7212 2.64637 21.3956 5.04602 21.3956 7.99528C21.3956 8.36435 21.6952 8.66389 22.0642 8.66389C22.4333 8.66389 22.7328 8.36435 22.7328 7.99528C22.7328 4.30854 20.0584 1.30914 16.0467 1.30914Z" fill="#5DADEC"/>
<path d="M19.3898 0C19.0207 0 18.7212 0.271457 18.7212 0.640532C18.7212 1.00961 19.0207 1.33723 19.3898 1.33723C21.3956 1.33723 22.7048 2.82489 22.7048 4.65221C22.7048 5.02129 23.0317 5.32083 23.4015 5.32083C23.7712 5.32083 24.042 5.02129 24.042 4.65221C24.042 2.08674 22.0642 0 19.3898 0Z" fill="#5DADEC"/>
</svg>
