<svg width="14" height="14" viewBox="0 0 14 14" fill="none" xmlns="http://www.w3.org/2000/svg">
<g clip-path="url(#clip0_528_21121)">
<path fill-rule="evenodd" clip-rule="evenodd" d="M1.75 2.91667C1.75 2.27233 2.27233 1.75 2.91667 1.75H4.08333C4.4055 1.75 4.66667 2.01117 4.66667 2.33333C4.66667 2.6555 4.4055 2.91667 4.08333 2.91667H2.91667V4.08333C2.91667 4.4055 2.6555 4.66667 2.33333 4.66667C2.01117 4.66667 1.75 4.4055 1.75 4.08333V2.91667ZM1.75 11.0833C1.75 11.7277 2.27233 12.25 2.91667 12.25H4.08333C4.4055 12.25 4.66667 11.9888 4.66667 11.6667C4.66667 11.3445 4.4055 11.0833 4.08333 11.0833H2.91667V9.91667C2.91667 9.59449 2.6555 9.33333 2.33333 9.33333C2.01117 9.33333 1.75 9.59449 1.75 9.91667V11.0833ZM11.0833 1.75C11.7277 1.75 12.25 2.27233 12.25 2.91667V4.08333C12.25 4.4055 11.9888 4.66667 11.6667 4.66667C11.3445 4.66667 11.0833 4.4055 11.0833 4.08333V2.91667H9.91667C9.59449 2.91667 9.33333 2.6555 9.33333 2.33333C9.33333 2.01117 9.59449 1.75 9.91667 1.75H11.0833ZM12.25 11.0833C12.25 11.7277 11.7277 12.25 11.0833 12.25H9.91667C9.59449 12.25 9.33333 11.9888 9.33333 11.6667C9.33333 11.3445 9.59449 11.0833 9.91667 11.0833H11.0833V9.91667C11.0833 9.59449 11.3445 9.33333 11.6667 9.33333C11.9888 9.33333 12.25 9.59449 12.25 9.91667V11.0833ZM9.89018 4.87555C9.98416 4.65631 9.93516 4.40195 9.76652 4.23328C9.59782 4.06462 9.34348 4.01564 9.12421 4.1096L3.34952 6.58449C3.11758 6.68389 2.97585 6.92113 2.99829 7.17249C3.02073 7.42385 3.20225 7.63227 3.44814 7.68903L5.77401 8.22576L6.31073 10.5516C6.36749 10.7975 6.57592 10.979 6.82727 11.0015C7.07863 11.0239 7.31593 10.8822 7.41533 10.6503L9.89018 4.87555ZM6.39158 7.17098L5.44984 6.95362L8.24337 5.7564L7.04614 8.54997L6.82879 7.60818C6.77868 7.39083 6.60893 7.22114 6.39158 7.17098Z" fill="black"/>
</g>
<defs>
<clipPath id="clip0_528_21121">
<rect width="14" height="14" fill="white"/>
</clipPath>
</defs>
</svg>
