<svg width="36" height="36" viewBox="0 0 36 36" fill="none" xmlns="http://www.w3.org/2000/svg">
<g filter="url(#filter0_d_1_2353)">
<circle cx="18" cy="17" r="16" fill="white"/>
</g>
<path d="M12.5 25.6896C11.89 25.6896 11.33 25.4696 10.92 25.0696C10.43 24.5796 10.22 23.8696 10.33 23.1196L10.76 20.1096C10.84 19.5296 11.22 18.7796 11.63 18.3696L19.51 10.4896C21.5 8.49957 23.52 8.49957 25.51 10.4896C26.6 11.5796 27.09 12.6896 26.99 13.7996C26.9 14.6996 26.42 15.5796 25.51 16.4796L17.63 24.3596C17.22 24.7696 16.47 25.1496 15.89 25.2296L12.88 25.6596C12.75 25.6896 12.62 25.6896 12.5 25.6896ZM20.57 11.5496L12.69 19.4296C12.5 19.6196 12.28 20.0596 12.24 20.3196L11.81 23.3296C11.77 23.6196 11.83 23.8596 11.98 24.0096C12.13 24.1596 12.37 24.2196 12.66 24.1796L15.67 23.7496C15.93 23.7096 16.38 23.4896 16.56 23.2996L24.44 15.4196C25.09 14.7696 25.43 14.1896 25.48 13.6496C25.54 12.9996 25.2 12.3096 24.44 11.5396C22.84 9.93957 21.74 10.3896 20.57 11.5496Z" fill="#433578"/>
<path d="M23.85 17.8303C23.78 17.8303 23.71 17.8203 23.65 17.8003C21.02 17.0603 18.93 14.9703 18.19 12.3403C18.08 11.9403 18.31 11.5303 18.71 11.4103C19.11 11.3003 19.52 11.5303 19.63 11.9303C20.23 14.0603 21.92 15.7503 24.05 16.3503C24.45 16.4603 24.68 16.8803 24.57 17.2803C24.48 17.6203 24.18 17.8303 23.85 17.8303Z" fill="#433578"/>
<defs>
<filter id="filter0_d_1_2353" x="0" y="0" width="36" height="36" filterUnits="userSpaceOnUse" color-interpolation-filters="sRGB">
<feFlood flood-opacity="0" result="BackgroundImageFix"/>
<feColorMatrix in="SourceAlpha" type="matrix" values="0 0 0 0 0 0 0 0 0 0 0 0 0 0 0 0 0 0 127 0" result="hardAlpha"/>
<feOffset dy="1"/>
<feGaussianBlur stdDeviation="1"/>
<feComposite in2="hardAlpha" operator="out"/>
<feColorMatrix type="matrix" values="0 0 0 0 0 0 0 0 0 0 0 0 0 0 0 0 0 0 0.1 0"/>
<feBlend mode="normal" in2="BackgroundImageFix" result="effect1_dropShadow_1_2353"/>
<feBlend mode="normal" in="SourceGraphic" in2="effect1_dropShadow_1_2353" result="shape"/>
</filter>
</defs>
</svg>
