<svg width="9" height="17" viewBox="0 0 9 17" fill="none" xmlns="http://www.w3.org/2000/svg">
<path d="M5.5995 3.51834L5.65616 6.63518L8.63727 6.59292C8.85264 6.59292 9.01131 6.77253 8.97731 6.96271L8.58058 8.98073C8.54657 9.12865 8.41058 9.2343 8.25189 9.24487L5.70151 9.28713L5.83752 16.9472L2.43702 17L2.30101 9.33996L0.37404 9.37166C0.181345 9.37166 0.0340036 9.2343 0.0340036 9.05469L0 7.04724C0 6.86762 0.147341 6.73027 0.340036 6.73027L2.267 6.69857L2.21031 3.26476C2.1763 1.51088 3.67254 0.0739599 5.55415 0.0422632L8.61458 0C8.80727 0 8.95465 0.137356 8.95465 0.31697L9 2.85271C9 3.03232 8.85262 3.16967 8.65993 3.16967L5.93953 3.21193C5.74684 3.20137 5.5995 3.34929 5.5995 3.51834Z" fill="#433578"/>
</svg>
