<svg width="24" height="24" viewBox="0 0 24 24" fill="none" xmlns="http://www.w3.org/2000/svg">
<path d="M4 4C3.44772 4 3 4.44772 3 5C3 5.55228 3.44772 6 4 6H20C20.5523 6 21 5.55228 21 5C21 4.44772 20.5523 4 20 4H4ZM3 12C3 11.4477 3.44772 11 4 11H7C7.55228 11 8 11.4477 8 12C8 12.5523 7.55228 13 7 13H4C3.44772 13 3 12.5523 3 12ZM3 19C3 18.4477 3.44772 18 4 18H8C8.55228 18 9 18.4477 9 19C9 19.5523 8.55228 20 8 20H4C3.44772 20 3 19.5523 3 19ZM10 14C10 11.2386 12.2386 9 15 9C17.7614 9 20 11.2386 20 14C20 15.0191 19.6951 15.967 19.1716 16.7574L20.7071 18.2929C21.0976 18.6834 21.0976 19.3166 20.7071 19.7071C20.3166 20.0976 19.6834 20.0976 19.2929 19.7071L17.7574 18.1716C16.967 18.6951 16.0191 19 15 19C12.2386 19 10 16.7614 10 14ZM15 11C13.3431 11 12 12.3431 12 14C12 15.6569 13.3431 17 15 17C16.6569 17 18 15.6569 18 14C18 12.3431 16.6569 11 15 11Z" fill="black"/>
</svg>
