<svg width="36" height="36" viewBox="0 0 36 36" fill="none" xmlns="http://www.w3.org/2000/svg">
<g clip-path="url(#clip0_33_1569)">
<rect width="36" height="36" rx="18" fill="white"/>
<path d="M18 28C23.5 28 28 23.5 28 18C28 12.5 23.5 8 18 8C12.5 8 8 12.5 8 18C8 23.5 12.5 28 18 28Z" stroke="#292D32" stroke-width="1.5" stroke-linecap="round" stroke-linejoin="round"/>
<path d="M15.1699 20.8299L20.8299 15.1699" stroke="#292D32" stroke-width="1.5" stroke-linecap="round" stroke-linejoin="round"/>
<path d="M20.8299 20.8299L15.1699 15.1699" stroke="#292D32" stroke-width="1.5" stroke-linecap="round" stroke-linejoin="round"/>
<rect x="0.5" y="0.5" width="35" height="35" rx="17.5" fill="white"/>
<path d="M17.5 27C22.7467 27 27 22.7467 27 17.5C27 12.2533 22.7467 8 17.5 8C12.2533 8 8 12.2533 8 17.5C8 22.7467 12.2533 27 17.5 27Z" stroke="#ED7212" stroke-width="1.5" stroke-linecap="round" stroke-linejoin="round"/>
<path d="M28 28L26 26" stroke="#ED7212" stroke-width="1.5" stroke-linecap="round" stroke-linejoin="round"/>
<rect x="0.5" y="0.5" width="35" height="35" rx="17.5" stroke="#EDEDED"/>
</g>
<rect x="0.5" y="0.5" width="35" height="35" rx="17.5" stroke="#EDEDED"/>
<defs>
<clipPath id="clip0_33_1569">
<rect width="36" height="36" rx="18" fill="white"/>
</clipPath>
</defs>
</svg>
