<svg width="22" height="22" viewBox="0 0 22 22" fill="none" xmlns="http://www.w3.org/2000/svg">
<path d="M13.75 20.8541H8.25004C3.27254 20.8541 1.14587 18.7274 1.14587 13.7499V8.24992C1.14587 3.27242 3.27254 1.14575 8.25004 1.14575H13.75C18.7275 1.14575 20.8542 3.27242 20.8542 8.24992V13.7499C20.8542 18.7274 18.7275 20.8541 13.75 20.8541ZM8.25004 2.52075C4.02421 2.52075 2.52087 4.02409 2.52087 8.24992V13.7499C2.52087 17.9758 4.02421 19.4791 8.25004 19.4791H13.75C17.9759 19.4791 19.4792 17.9758 19.4792 13.7499V8.24992C19.4792 4.02409 17.9759 2.52075 13.75 2.52075H8.25004Z" fill="#433578"/>
<path d="M11 14.8959C8.85496 14.8959 7.10413 13.1451 7.10413 11.0001C7.10413 8.85508 8.85496 7.10425 11 7.10425C13.145 7.10425 14.8958 8.85508 14.8958 11.0001C14.8958 13.1451 13.145 14.8959 11 14.8959ZM11 8.47925C9.60663 8.47925 8.47913 9.60675 8.47913 11.0001C8.47913 12.3934 9.60663 13.5209 11 13.5209C12.3933 13.5209 13.5208 12.3934 13.5208 11.0001C13.5208 9.60675 12.3933 8.47925 11 8.47925Z" fill="#433578"/>
<path d="M15.5833 6.87491C15.4641 6.87491 15.345 6.84741 15.235 6.80158C15.125 6.75575 15.0241 6.69158 14.9325 6.60908C14.85 6.51741 14.7766 6.41658 14.7308 6.30658C14.685 6.19658 14.6666 6.07741 14.6666 5.95825C14.6666 5.83908 14.685 5.71991 14.7308 5.60991C14.7858 5.49075 14.85 5.39908 14.9325 5.30741C14.9783 5.27075 15.0241 5.22491 15.07 5.19741C15.125 5.16075 15.18 5.13325 15.235 5.11491C15.29 5.08741 15.345 5.06908 15.4091 5.05991C15.7025 4.99575 16.0141 5.09658 16.2341 5.30741C16.3166 5.39908 16.3808 5.49075 16.4266 5.60991C16.4725 5.71991 16.5 5.83908 16.5 5.95825C16.5 6.07741 16.4725 6.19658 16.4266 6.30658C16.3808 6.41658 16.3166 6.51741 16.2341 6.60908C16.1425 6.69158 16.0416 6.75575 15.9316 6.80158C15.8216 6.84741 15.7025 6.87491 15.5833 6.87491Z" fill="#433578"/>
</svg>
