<svg width="586" height="232" viewBox="0 0 586 232" fill="none" xmlns="http://www.w3.org/2000/svg">
<g clip-path="url(#clip0_528_15734)">
<path d="M499.5 8.41663C510.477 8.41663 519.375 17.315 519.375 28.2916C519.375 35.0796 515.674 40.6344 511.775 44.6211C509.636 46.8082 507.361 48.6024 505.422 49.9583L504.483 50.5995C504.332 50.7002 504.183 50.7978 504.038 50.8923L503.208 51.4216L502.466 51.8747L501.547 52.4088C500.268 53.1312 498.732 53.1312 497.453 52.4088L496.534 51.8747L495.387 51.1664C495.249 51.0782 495.107 50.9868 494.962 50.8923L494.055 50.2881C492.019 48.8987 489.543 46.9905 487.225 44.6211C483.326 40.6344 479.625 35.0796 479.625 28.2916C479.625 17.315 488.523 8.41663 499.5 8.41663ZM499.5 21.6666C495.841 21.6666 492.875 24.6327 492.875 28.2916C492.875 31.9506 495.841 34.9166 499.5 34.9166C503.159 34.9166 506.125 31.9506 506.125 28.2916C506.125 24.6327 503.159 21.6666 499.5 21.6666Z" fill="#9A2921"/>
</g>
<g clip-path="url(#clip1_528_15734)">
<path d="M376 96.5C399.61 96.5 418.75 115.64 418.75 139.25C418.75 153.851 410.789 165.799 402.402 174.374C397.801 179.078 392.908 182.937 388.738 185.854L386.718 187.233C386.393 187.45 386.074 187.66 385.762 187.863L383.975 189.001L382.379 189.976L380.404 191.125C377.653 192.678 374.347 192.678 371.596 191.125L369.621 189.976L367.154 188.452C366.856 188.263 366.55 188.066 366.238 187.863L364.289 186.563C359.909 183.575 354.583 179.47 349.598 174.374C341.211 165.799 333.25 153.851 333.25 139.25C333.25 115.64 352.39 96.5 376 96.5ZM376 125C368.13 125 361.75 131.38 361.75 139.25C361.75 147.12 368.13 153.5 376 153.5C383.87 153.5 390.25 147.12 390.25 139.25C390.25 131.38 383.87 125 376 125Z" fill="#9A2921"/>
</g>
<path d="M373 215.5C373 215.5 587.5 194 580 151.5C572.5 109 451.5 119 445.5 93.5C439.5 68 499 64 499 64" stroke="white" stroke-width="10" stroke-linecap="round"/>
<path d="M579 149L582.5 157.5C582.5 157.5 587 185 477.5 211.5C411 224.5 373 227.5 373 227.5L372 219.5L367 205.5C367 205.5 408.5 206.5 474 192.5C523.95 181.824 560.5 171 569.5 164.107C579.951 156.102 579 149 579 149Z" fill="white"/>
<circle cx="499" cy="64" r="7" fill="#9A2921"/>
<circle cx="377" cy="215" r="14" fill="#9A2921"/>
<path d="M184.937 115.664C186.811 115.664 188.405 115.138 189.72 114.085C191.2 112.968 191.939 111.455 191.939 109.548C191.939 107.641 191.233 106.162 189.819 105.11C188.405 104.058 186.778 103.532 184.937 103.532C183.062 103.532 181.468 104.041 180.153 105.061C178.739 106.178 178.032 107.674 178.032 109.548C178.032 111.422 178.739 112.935 180.153 114.085C181.468 115.138 183.062 115.664 184.937 115.664ZM200.866 115.664C202.74 115.664 204.334 115.138 205.649 114.085C207.129 112.968 207.869 111.455 207.869 109.548C207.869 107.641 207.162 106.162 205.748 105.11C204.334 104.058 202.707 103.532 200.866 103.532C198.992 103.532 197.397 104.041 196.082 105.061C194.635 106.178 193.912 107.674 193.912 109.548C193.912 111.422 194.635 112.935 196.082 114.085C197.364 115.138 198.959 115.664 200.866 115.664ZM247.125 84.3477C244.166 84.3477 241.848 83.4435 240.171 81.6353C238.494 79.827 237.656 77.1968 237.656 73.7446V43.8096H223.502C219.754 43.8096 216.417 44.3027 213.491 45.2891C210.565 46.2754 208.082 47.7384 206.044 49.6782C203.973 51.6509 202.395 54.1003 201.31 57.0264C200.225 59.9525 199.682 63.3553 199.682 67.2349V84.3477H183.802C180.843 84.3477 178.476 83.46 176.701 81.6846C174.958 79.9092 174.087 77.0324 174.087 73.0542V62.0073H179.906V49.8755H160.032V73.0542C160.032 76.9338 160.574 80.3366 161.659 83.2627C162.711 86.1559 164.273 88.5889 166.344 90.5615C168.416 92.5342 170.898 94.0137 173.791 95C176.717 95.9863 180.054 96.4795 183.802 96.4795H213.787V67.2349C213.787 63.2567 214.658 60.3799 216.4 58.6045C218.209 56.8291 220.592 55.9414 223.551 55.9414V73.5474C223.551 76.868 224.044 79.9256 225.031 82.7202C226.05 85.5148 227.579 87.9313 229.617 89.9697C231.623 92.0081 234.105 93.6027 237.064 94.7534C239.924 95.8713 243.229 96.4466 246.977 96.4795H247.125C248.801 96.4795 250.231 95.8877 251.415 94.7041C252.599 93.5205 253.19 92.0903 253.19 90.4136C253.19 88.7368 252.599 87.3066 251.415 86.123C250.231 84.9395 248.801 84.3477 247.125 84.3477ZM275.087 37.7437C276.928 37.7437 278.523 37.234 279.871 36.2148C281.35 35.0641 282.09 33.5518 282.09 31.6777C282.09 29.738 281.383 28.242 279.969 27.1899C278.556 26.1379 276.928 25.6118 275.087 25.6118C273.213 25.6118 271.618 26.1214 270.303 27.1406C268.857 28.2585 268.133 29.7708 268.133 31.6777C268.133 33.5189 268.857 35.0312 270.303 36.2148C271.585 37.234 273.18 37.7437 275.087 37.7437ZM275.136 96.4795C279.246 96.4795 283.01 95.8877 286.43 94.7041C289.882 93.5205 292.824 91.8273 295.257 89.6245C297.69 87.3888 299.581 84.6271 300.929 81.3394C302.31 78.0516 303 74.3035 303 70.0952C303 65.9198 302.31 62.2046 300.929 58.9497C299.581 55.6948 297.69 52.9495 295.257 50.7139C292.824 48.4453 289.882 46.7357 286.43 45.585C283.01 44.4014 279.246 43.8096 275.136 43.8096C271.027 43.8096 267.246 44.4178 263.793 45.6343C260.374 46.8179 257.432 48.5439 254.966 50.8125C252.5 53.0482 250.577 55.7935 249.196 59.0483C247.848 62.3032 247.174 65.9855 247.174 70.0952C247.174 75.5529 248.357 80.3037 250.725 84.3477H247.174V96.4795H275.136ZM275.136 84.3477C273.131 84.3477 271.29 84.0024 269.613 83.312C267.936 82.5887 266.489 81.6188 265.273 80.4023C264.056 79.153 263.103 77.6571 262.413 75.9146C261.755 74.1392 261.426 72.1994 261.426 70.0952C261.426 68.0239 261.755 66.1335 262.413 64.4238C263.103 62.6813 264.04 61.1854 265.224 59.936C266.407 58.6538 267.854 57.6675 269.563 56.9771C271.273 56.2866 273.131 55.9414 275.136 55.9414C277.208 55.9414 279.082 56.2866 280.758 56.9771C282.468 57.6346 283.915 58.5716 285.098 59.7881C286.282 61.0046 287.186 62.484 287.811 64.2266C288.468 65.9691 288.797 67.9253 288.797 70.0952C288.797 72.1994 288.468 74.1392 287.811 75.9146C287.186 77.6571 286.282 79.153 285.098 80.4023C283.915 81.6188 282.468 82.5887 280.758 83.312C279.082 84.0024 277.208 84.3477 275.136 84.3477ZM32.1543 231.664C34.0283 231.664 35.6229 231.138 36.938 230.085C38.4175 228.968 39.1572 227.455 39.1572 225.548C39.1572 223.641 38.4504 222.162 37.0366 221.11C35.6229 220.058 33.9954 219.532 32.1543 219.532C30.2803 219.532 28.6857 220.041 27.3706 221.061C25.9569 222.178 25.25 223.674 25.25 225.548C25.25 227.422 25.9569 228.935 27.3706 230.085C28.6857 231.138 30.2803 231.664 32.1543 231.664ZM48.0835 231.664C49.9575 231.664 51.5521 231.138 52.8672 230.085C54.3467 228.968 55.0864 227.455 55.0864 225.548C55.0864 223.641 54.3796 222.162 52.9658 221.11C51.5521 220.058 49.9246 219.532 48.0835 219.532C46.2095 219.532 44.6149 220.041 43.2998 221.061C41.8532 222.178 41.1299 223.674 41.1299 225.548C41.1299 227.422 41.8532 228.935 43.2998 230.085C44.582 231.138 46.1766 231.664 48.0835 231.664ZM94.3423 200.348C91.3833 200.348 89.0654 199.444 87.3887 197.635C85.7119 195.827 84.8735 193.197 84.8735 189.745V159.81H70.7197C66.9717 159.81 63.6346 160.303 60.7085 161.289C57.7824 162.275 55.3001 163.738 53.2617 165.678C51.1904 167.651 49.6123 170.1 48.5273 173.026C47.4424 175.952 46.8999 179.355 46.8999 183.235V200.348H31.02C28.061 200.348 25.6938 199.46 23.9185 197.685C22.1759 195.909 21.3047 193.032 21.3047 189.054V178.007H27.124V165.875H7.24951V189.054C7.24951 192.934 7.79199 196.337 8.87695 199.263C9.92904 202.156 11.4907 204.589 13.562 206.562C15.6333 208.534 18.1156 210.014 21.0088 211C23.9349 211.986 27.272 212.479 31.02 212.479H61.0044V183.235C61.0044 179.257 61.8757 176.38 63.6182 174.604C65.4264 172.829 67.8101 171.941 70.769 171.941V189.547C70.769 192.868 71.2622 195.926 72.2485 198.72C73.2677 201.515 74.7965 203.931 76.835 205.97C78.8405 208.008 81.3228 209.603 84.2817 210.753C87.1421 211.871 90.4463 212.447 94.1943 212.479H94.3423C96.019 212.479 97.4492 211.888 98.6328 210.704C99.8164 209.521 100.408 208.09 100.408 206.414C100.408 204.737 99.8164 203.307 98.6328 202.123C97.4492 200.939 96.019 200.348 94.3423 200.348ZM113.872 153.744C115.746 153.744 117.34 153.234 118.655 152.215C120.135 151.064 120.875 149.552 120.875 147.678C120.875 145.738 120.168 144.242 118.754 143.19C117.34 142.138 115.713 141.612 113.872 141.612C111.998 141.612 110.403 142.121 109.088 143.141C107.641 144.258 106.918 145.771 106.918 147.678C106.918 149.519 107.641 151.031 109.088 152.215C110.37 153.234 111.965 153.744 113.872 153.744ZM130.688 153.744C132.562 153.744 134.174 153.234 135.521 152.215C136.968 151.064 137.691 149.552 137.691 147.678C137.691 145.738 136.985 144.242 135.571 143.19C134.157 142.138 132.53 141.612 130.688 141.612C128.847 141.612 127.269 142.121 125.954 143.141C124.507 144.258 123.784 145.771 123.784 147.678C123.784 149.519 124.507 151.031 125.954 152.215C127.236 153.234 128.814 153.744 130.688 153.744ZM122.354 200.348C120.348 200.348 118.507 200.002 116.831 199.312C115.154 198.589 113.707 197.619 112.491 196.402C111.274 195.153 110.321 193.657 109.63 191.915C108.973 190.139 108.644 188.199 108.644 186.095C108.644 184.024 108.973 182.133 109.63 180.424C110.321 178.681 111.258 177.185 112.441 175.936C113.625 174.654 115.072 173.667 116.781 172.977C118.491 172.287 120.348 171.941 122.354 171.941C124.425 171.941 126.299 172.287 127.976 172.977C129.686 173.635 131.132 174.572 132.316 175.788C133.5 177.005 134.404 178.484 135.028 180.227C135.686 181.969 136.015 183.925 136.015 186.095C136.015 188.199 135.686 190.139 135.028 191.915C134.404 193.657 133.5 195.153 132.316 196.402C131.132 197.619 129.686 198.589 127.976 199.312C126.299 200.002 124.425 200.348 122.354 200.348ZM146.716 200.348C147.242 199.394 147.736 198.391 148.196 197.339C149.544 194.052 150.218 190.304 150.218 186.095C150.218 181.92 149.544 178.205 148.196 174.95C146.815 171.695 144.908 168.95 142.475 166.714C140.042 164.445 137.116 162.719 133.697 161.536C130.245 160.385 126.464 159.81 122.354 159.81C118.244 159.81 114.48 160.401 111.061 161.585C107.608 162.801 104.649 164.528 102.184 166.763C99.7178 169.032 97.8109 171.793 96.4629 175.048C95.082 178.303 94.3916 181.986 94.3916 186.095C94.3916 190.304 95.082 194.052 96.4629 197.339C96.8903 198.391 97.3835 199.394 97.9424 200.348H94.3916V212.479H159.736C161.413 212.479 162.843 211.888 164.026 210.704C165.21 209.521 165.802 208.09 165.802 206.414C165.802 204.737 165.21 203.307 164.026 202.123C162.843 200.939 161.413 200.348 159.736 200.348H146.716ZM159.785 212.381C167.183 212.381 172.969 210.375 177.145 206.364C181.32 202.32 183.408 196.567 183.408 189.104V178.007H189.227V165.875H169.353L169.303 189.104C169.303 192.983 168.432 195.811 166.689 197.586C164.947 199.361 162.646 200.249 159.785 200.249V212.381ZM159.687 231.664C161.561 231.664 163.172 231.138 164.52 230.085C165.966 228.935 166.689 227.422 166.689 225.548C166.689 223.641 165.983 222.162 164.569 221.11C163.155 220.058 161.528 219.532 159.687 219.532C157.845 219.532 156.267 220.041 154.952 221.061C153.506 222.178 152.782 223.674 152.782 225.548C152.782 227.422 153.506 228.935 154.952 230.085C156.234 231.138 157.812 231.664 159.687 231.664ZM176.553 231.664C178.394 231.664 179.988 231.138 181.336 230.085C182.783 228.935 183.506 227.422 183.506 225.548C183.506 223.641 182.799 222.162 181.386 221.11C179.972 220.058 178.361 219.532 176.553 219.532C174.679 219.532 173.084 220.041 171.769 221.061C170.322 222.178 169.599 223.674 169.599 225.548C169.599 227.422 170.322 228.935 171.769 230.085C173.051 231.138 174.646 231.664 176.553 231.664ZM219.458 210.951C222.22 211.937 225.36 212.447 228.877 212.479H229.025C230.702 212.479 232.132 211.888 233.316 210.704C234.532 209.521 235.141 208.09 235.141 206.414C235.141 204.737 234.532 203.307 233.316 202.123C232.132 200.939 230.702 200.348 229.025 200.348C226.066 200.348 223.749 199.444 222.072 197.635C220.395 195.827 219.557 193.197 219.557 189.745V171.941H200.521V181.755H205.403V208.978C205.403 212.43 204.564 215.044 202.888 216.819C201.211 218.628 198.893 219.532 195.934 219.532V231.664C199.748 231.631 203.101 231.055 205.995 229.938C208.954 228.787 211.436 227.192 213.441 225.154C215.48 223.115 217.009 220.699 218.028 217.904C218.817 215.734 219.294 213.417 219.458 210.951ZM275.087 212.479C279.229 212.479 283.01 211.888 286.43 210.704C289.849 209.521 292.775 207.811 295.208 205.575C297.641 203.307 299.548 200.545 300.929 197.29C302.31 194.035 303 190.32 303 186.145C303 181.936 302.31 178.188 300.929 174.9C298.2 168.391 293.367 163.936 286.43 161.536C283.01 160.385 279.229 159.81 275.087 159.81H257.678C253.733 159.842 250.281 160.451 247.322 161.634V141.612H229.025V153.793H234.056V200.298H229.025V212.479H275.087ZM275.087 200.298H248.209V182.495C248.209 179.043 249.048 176.429 250.725 174.654C252.401 172.846 254.719 171.941 257.678 171.941H275.087C277.158 171.941 279.032 172.287 280.709 172.977C282.419 173.667 283.865 174.637 285.049 175.887C286.232 177.136 287.137 178.632 287.761 180.375C288.419 182.117 288.748 184.04 288.748 186.145C288.748 188.314 288.419 190.271 287.761 192.013C287.137 193.756 286.232 195.252 285.049 196.501C283.865 197.717 282.419 198.654 280.709 199.312C279.032 199.97 277.158 200.298 275.087 200.298Z" fill="white"/>
<defs>
<clipPath id="clip0_528_15734">
<rect width="53" height="53" fill="white" transform="translate(473 4)"/>
</clipPath>
<clipPath id="clip1_528_15734">
<rect width="114" height="114" fill="white" transform="translate(319 87)"/>
</clipPath>
</defs>
</svg>
