<svg xmlns="http://www.w3.org/2000/svg" width="44.967" height="43.201" viewBox="0 0 44.967 43.201">
  <g id="Group_164" data-name="Group 164" transform="translate(-25.516 -5373.089)">
    <g id="_Group_" data-name="&lt;Group&gt;" transform="matrix(0.966, -0.259, 0.259, 0.966, 25.516, 5382.625)" opacity="0.4">
      <path id="_Path_" data-name="&lt;Path&gt;" d="M1.922.17,29.992,16.2a1.279,1.279,0,0,1,0,2.224L2.065,34.675A1.294,1.294,0,0,1,.126,33.563L0,1.281A1.283,1.283,0,0,1,1.922.17Z" transform="translate(0 0)" fill="#8b8b8b"/>
      <path id="_Path_2" data-name="&lt;Path&gt;" d="M1.922.17,29.992,16.2a1.279,1.279,0,0,1,0,2.224L2.065,34.675A1.294,1.294,0,0,1,.126,33.563L0,1.281A1.283,1.283,0,0,1,1.922.17Z" transform="translate(0 0)" fill="none"/>
    </g>
    <path id="_Path_3" data-name="&lt;Path&gt;" d="M1.922.17,29.992,16.2a1.279,1.279,0,0,1,0,2.224L2.065,34.675a1.3,1.3,0,0,1-1.94-1.112L0,1.281A1.283,1.283,0,0,1,1.922.17Z" transform="matrix(0.966, -0.259, 0.259, 0.966, 31.868, 5381.019)" fill="rgba(255,79,101,0.99)"/>
    <path id="_Path_4" data-name="&lt;Path&gt;" d="M1.922.17,29.992,16.2a1.279,1.279,0,0,1,0,2.224L2.065,34.675a1.3,1.3,0,0,1-1.94-1.112L0,1.281A1.283,1.283,0,0,1,1.922.17Z" transform="matrix(0.966, -0.259, 0.259, 0.966, 31.868, 5381.019)" fill="none"/>
  </g>
</svg>
