<svg width="24" height="24" viewBox="0 0 24 24" fill="none" xmlns="http://www.w3.org/2000/svg">
<path d="M12 22.7604C10.91 22.7604 9.82999 22.4404 8.97999 21.8104L4.67999 18.6004C3.53999 17.7504 2.64999 15.9804 2.64999 14.5604V7.12043C2.64999 5.58043 3.77999 3.94043 5.22999 3.40043L10.22 1.53043C11.21 1.16043 12.77 1.16043 13.76 1.53043L18.76 3.40043C20.21 3.94043 21.34 5.58043 21.34 7.12043V14.5504C21.34 15.9704 20.45 17.7404 19.31 18.5904L15.01 21.8004C14.17 22.4404 13.09 22.7604 12 22.7604ZM10.75 2.94043L5.75999 4.81043C4.89999 5.13043 4.14999 6.21043 4.14999 7.13043V14.5604C4.14999 15.5104 4.81999 16.8404 5.56999 17.4004L9.86999 20.6104C11.02 21.4704 12.97 21.4704 14.12 20.6104L18.42 17.4004C19.18 16.8304 19.84 15.5004 19.84 14.5604V7.12043C19.84 6.21043 19.09 5.13043 18.23 4.80043L13.24 2.93043C12.58 2.69043 11.42 2.69043 10.75 2.94043Z" fill="black"/>
<path d="M12 13.25C10.48 13.25 9.25 12.02 9.25 10.5C9.25 8.98 10.48 7.75 12 7.75C13.52 7.75 14.75 8.98 14.75 10.5C14.75 12.02 13.52 13.25 12 13.25ZM12 9.25C11.31 9.25 10.75 9.81 10.75 10.5C10.75 11.19 11.31 11.75 12 11.75C12.69 11.75 13.25 11.19 13.25 10.5C13.25 9.81 12.69 9.25 12 9.25Z" fill="black"/>
<path d="M12 16.25C11.59 16.25 11.25 15.91 11.25 15.5V12.5C11.25 12.09 11.59 11.75 12 11.75C12.41 11.75 12.75 12.09 12.75 12.5V15.5C12.75 15.91 12.41 16.25 12 16.25Z" fill="black"/>
</svg>
