<svg width="26" height="22" viewBox="0 0 26 22" fill="none" xmlns="http://www.w3.org/2000/svg">
<g clip-path="url(#clip0_690_18305)">
<path d="M17.0877 0.417969C18.1209 0.417969 18.9585 1.25554 18.9585 2.28874C18.9585 2.92768 18.6101 3.45054 18.2431 3.82579C18.0417 4.03166 17.8276 4.20053 17.6451 4.32816L17.5567 4.38852C17.5425 4.398 17.5285 4.40719 17.5149 4.41608L17.4367 4.4659L17.3668 4.50855L17.2804 4.55883C17.16 4.62682 17.0154 4.62682 16.895 4.55883L16.8086 4.50855L16.7006 4.44188C16.6875 4.43358 16.6742 4.42497 16.6605 4.41608L16.5752 4.35921C16.3835 4.22842 16.1504 4.04881 15.9323 3.82579C15.5653 3.45054 15.2169 2.92768 15.2169 2.28874C15.2169 1.25554 16.0545 0.417969 17.0877 0.417969ZM17.0877 1.66515C16.7433 1.66515 16.4641 1.94434 16.4641 2.28874C16.4641 2.63315 16.7433 2.91234 17.0877 2.91234C17.4321 2.91234 17.7113 2.63315 17.7113 2.28874C17.7113 1.94434 17.4321 1.66515 17.0877 1.66515Z" fill="#9A2921"/>
</g>
<g clip-path="url(#clip1_690_18305)">
<path d="M5.46278 8.70508C7.68515 8.70508 9.48671 10.5067 9.48671 12.729C9.48671 14.1033 8.73741 15.228 7.94796 16.0351C7.51483 16.4779 7.05431 16.8412 6.66178 17.1157L6.47162 17.2455C6.44101 17.2659 6.41099 17.2857 6.38161 17.3048L6.21342 17.412L6.06318 17.5037L5.87729 17.6118C5.61832 17.7581 5.30723 17.7581 5.04827 17.6118L4.86237 17.5037L4.63011 17.3603C4.60206 17.3424 4.57332 17.3239 4.54394 17.3048L4.36044 17.1825C3.94819 16.9012 3.44681 16.5148 2.9776 16.0351C2.18814 15.228 1.43884 14.1033 1.43884 12.729C1.43884 10.5067 3.24042 8.70508 5.46278 8.70508ZM5.46278 11.3877C4.72197 11.3877 4.12146 11.9882 4.12146 12.729C4.12146 13.4698 4.72197 14.0703 5.46278 14.0703C6.20358 14.0703 6.80409 13.4698 6.80409 12.729C6.80409 11.9882 6.20358 11.3877 5.46278 11.3877Z" fill="#9A2921"/>
</g>
<path d="M5.1803 19.9082C5.1803 19.9082 25.3706 17.8845 24.6646 13.8841C23.9586 9.88367 12.5693 10.8249 12.0045 8.4247C11.4397 6.02446 17.0403 5.64795 17.0403 5.64795" stroke="black" stroke-width="0.94127" stroke-linecap="round"/>
<path d="M24.5707 13.6484L24.9001 14.4485C24.9001 14.4485 25.3237 17.037 15.0168 19.5314C8.75731 20.755 5.18049 21.0374 5.18049 21.0374L5.08636 20.2844L4.61572 18.9666C4.61572 18.9666 8.522 19.0607 14.6873 17.743C19.389 16.738 22.8293 15.7192 23.6765 15.0704C24.6602 14.317 24.5707 13.6484 24.5707 13.6484Z" fill="black"/>
<circle cx="17.0404" cy="5.64668" r="0.658889" fill="#9A2921"/>
<circle cx="5.55691" cy="19.8603" r="1.31778" fill="#9A2921"/>
<defs>
<clipPath id="clip0_690_18305">
<rect width="4.98873" height="4.98873" fill="white" transform="translate(14.593)"/>
</clipPath>
<clipPath id="clip1_690_18305">
<rect width="10.7305" height="10.7305" fill="white" transform="translate(0.0975342 7.81299)"/>
</clipPath>
</defs>
</svg>
