<svg width="24" height="24" viewBox="0 0 24 24" fill="none" xmlns="http://www.w3.org/2000/svg">
<path fill-rule="evenodd" clip-rule="evenodd" d="M8.17107 15.8287C12.0169 19.6745 15.5797 20.0956 16.6254 20.1341C17.8899 20.1806 19.1797 19.1485 19.7371 18.0908C18.8475 17.0467 17.6887 16.2369 16.419 15.3589C15.6707 16.1072 14.7479 17.4975 13.5181 17.0001C12.8198 16.7177 11.0936 15.9228 9.58529 14.4145C8.07691 12.9061 7.28205 11.1799 6.99965 10.4817C6.50183 9.25085 7.89525 8.32636 8.64411 7.5775C7.76656 6.28681 6.9701 5.09842 5.92819 4.25344C4.85677 4.81393 3.81858 6.09394 3.86569 7.37436C3.90417 8.42002 4.32527 11.9829 8.17107 15.8287ZM16.5518 22.1327C15.1109 22.0797 11.0302 21.5163 6.75686 17.2429C2.48347 12.9695 1.92007 8.88886 1.86705 7.44791C1.78625 5.25245 3.46805 3.11926 5.41166 2.28629C5.86772 2.09083 6.42011 2.1266 6.85679 2.44513C8.46442 3.6178 9.57357 5.39555 10.5261 6.78755C10.9319 7.38061 10.8649 8.18514 10.3497 8.70036L8.99329 10.0567C9.3081 10.752 9.95037 11.9511 10.9995 13.0002C12.0486 14.0494 13.2477 14.6916 13.943 15.0065L15.2987 13.6507C15.8144 13.1351 16.6224 13.0671 17.2168 13.4789C18.6368 14.4627 20.3045 15.5562 21.5205 17.1135C21.862 17.5509 21.9128 18.1229 21.7091 18.5983C20.8723 20.5509 18.7547 22.2138 16.5518 22.1327Z" fill="#9A2921"/>
</svg>
