<svg xmlns="http://www.w3.org/2000/svg" width="14.504" height="14.507" viewBox="0 0 14.504 14.507">
  <path id="phone-flip" d="M14.5,3.768C14.5,8.384,8.379,14.5,3.769,14.5a3.713,3.713,0,0,1-2.647-1.076l-.6-.695a1.862,1.862,0,0,1,.03-2.616c.018-.018,1.474-1.136,1.474-1.136a1.877,1.877,0,0,1,2.586,0l.882.707a7.731,7.731,0,0,0,4.187-4.2l-.7-.882a1.865,1.865,0,0,1,0-2.586S10.1.559,10.114.541a1.871,1.871,0,0,1,2.647,0l.634.55A3.713,3.713,0,0,1,14.5,3.762Z" transform="translate(0.004 0.008)" fill="#aeaeae"/>
</svg>
