<svg width="20" height="20" viewBox="0 0 20 20" fill="none" xmlns="http://www.w3.org/2000/svg">
<path d="M10.0003 1.66602C14.6027 1.66602 18.3337 5.39697 18.3337 9.99935C18.3337 14.6017 14.6027 18.3327 10.0003 18.3327C5.39795 18.3327 1.66699 14.6017 1.66699 9.99935C1.66699 5.39697 5.39795 1.66602 10.0003 1.66602ZM10.0003 3.33268C6.31843 3.33268 3.33366 6.31745 3.33366 9.99935C3.33366 13.6813 6.31843 16.666 10.0003 16.666C13.6822 16.666 16.667 13.6813 16.667 9.99935C16.667 6.31745 13.6822 3.33268 10.0003 3.33268Z" fill="black"/>
<path d="M6.25033 11.2493C5.55997 11.2493 5.00033 10.6897 5.00033 9.99935C5.00033 9.30902 5.55997 8.74935 6.25033 8.74935H13.7503C14.4407 8.74935 15.0003 9.30902 15.0003 9.99935C15.0003 10.6897 14.4407 11.2493 13.7503 11.2493H6.25033Z" fill="black"/>
</svg>
