<svg width="14" height="14" viewBox="0 0 14 14" fill="none" xmlns="http://www.w3.org/2000/svg">
<g clip-path="url(#clip0_690_18149)">
<path d="M4.80816 1.76756C5.12071 1.84569 5.31073 2.1624 5.2326 2.47495L2.89926 11.8083C2.82113 12.1208 2.50442 12.3109 2.19187 12.2327C1.87932 12.1546 1.6893 11.8379 1.76743 11.5254L4.10077 2.19199C4.1789 1.87944 4.49561 1.68942 4.80816 1.76756ZM9.89925 2.19199L12.2326 11.5254C12.3107 11.8379 12.1207 12.1546 11.8081 12.2327C11.4956 12.3109 11.1789 12.1208 11.1008 11.8083L8.76746 2.47495C8.68929 2.1624 8.87934 1.84569 9.1919 1.76756C9.50445 1.68942 9.82114 1.87944 9.89925 2.19199ZM7.00002 9.91681C7.29918 9.91681 7.54573 10.142 7.57943 10.4321L7.58335 10.5001V11.6668C7.58335 11.989 7.3222 12.2501 7.00002 12.2501C6.70086 12.2501 6.45431 12.025 6.42061 11.7348L6.41669 11.6668V10.5001C6.41669 10.178 6.67785 9.91681 7.00002 9.91681ZM7.00002 5.83347C7.3222 5.83347 7.58335 6.09463 7.58335 6.4168V7.58347C7.58335 7.90565 7.3222 8.1668 7.00002 8.1668C6.67785 8.1668 6.41669 7.90565 6.41669 7.58347V6.4168C6.41669 6.09463 6.67785 5.83347 7.00002 5.83347ZM7.00002 1.75014C7.29918 1.75014 7.54573 1.97533 7.57943 2.26544L7.58335 2.33347V3.50014C7.58335 3.82231 7.3222 4.08347 7.00002 4.08347C6.70086 4.08347 6.45431 3.85828 6.42061 3.56817L6.41669 3.50014V2.33347C6.41669 2.01131 6.67785 1.75014 7.00002 1.75014Z" fill="black"/>
</g>
<defs>
<clipPath id="clip0_690_18149">
<rect width="14" height="14" fill="white"/>
</clipPath>
</defs>
</svg>
