<svg xmlns="http://www.w3.org/2000/svg" width="15.035" height="15.037" viewBox="0 0 15.035 15.037">
  <path id="share-square" d="M14.49,6.345l-3.384,3.5a.636.636,0,0,1-.451.188A.624.624,0,0,1,10.2,8.971L13.425,5.65H8.148a1.886,1.886,0,0,0-1.88,1.88v3.134a.627.627,0,0,1-1.253,0V7.53A3.135,3.135,0,0,1,8.148,4.4h5.277L10.2,1.068A.625.625,0,0,1,11.1.2L14.49,3.7a1.878,1.878,0,0,1-.006,2.651ZM9.345,10.751c-.232-.226-1.172-1.473-1.824-2.35v2.181a1.919,1.919,0,0,1-1.5,1.918A1.883,1.883,0,0,1,3.76,10.657V7.524A4.368,4.368,0,0,1,5.083,4.39H3.134A3.135,3.135,0,0,0,0,7.524v4.387a3.135,3.135,0,0,0,3.134,3.134H7.521a3.135,3.135,0,0,0,3.134-3.134v-.627a1.865,1.865,0,0,1-1.31-.533Z" transform="translate(0 -0.007)" fill="#b48dd2"/>
</svg>
