<svg xmlns="http://www.w3.org/2000/svg" width="21.928" height="26.144" viewBox="0 0 21.928 26.144">
  <g id="Group_222" data-name="Group 222" transform="translate(-4422 -4323)">
    <path id="tik-tok" d="M22.465,9.866a9.809,9.809,0,0,1-5.74-1.846v8.385a7.631,7.631,0,1,1-6.57-7.521V13.1a3.426,3.426,0,0,0-1.023-.16,3.469,3.469,0,1,0,3.463,3.6L12.6,0h4.126a5.825,5.825,0,0,0,.1,1.047,5.752,5.752,0,0,0,2.517,3.764,5.706,5.706,0,0,0,3.126.93V9.866Z" transform="translate(4420.463 4323)" fill="#92deff"/>
    <path id="tik-tok-2" data-name="tik-tok" d="M22.465,9.866a9.809,9.809,0,0,1-5.74-1.846v8.385a7.631,7.631,0,1,1-6.57-7.521V13.1a3.426,3.426,0,0,0-1.023-.16,3.469,3.469,0,1,0,3.463,3.6L12.6,0h4.126a5.825,5.825,0,0,0,.1,1.047,5.752,5.752,0,0,0,2.517,3.764,5.706,5.706,0,0,0,3.126.93V9.866Z" transform="translate(4421.463 4325.145)" fill="#f94b4b"/>
    <path id="tik-tok-3" data-name="tik-tok" d="M22.465,9.866a9.809,9.809,0,0,1-5.74-1.846v8.385a7.631,7.631,0,1,1-6.57-7.521V13.1a3.426,3.426,0,0,0-1.023-.16,3.469,3.469,0,1,0,3.463,3.6L12.6,0h4.126a5.825,5.825,0,0,0,.1,1.047,5.752,5.752,0,0,0,2.517,3.764,5.706,5.706,0,0,0,3.126.93V9.866Z" transform="translate(4421.463 4324)"/>
  </g>
</svg>
