<svg width="22" height="22" viewBox="0 0 22 22" fill="none" xmlns="http://www.w3.org/2000/svg">
<path d="M11 11.6872C8.09416 11.6872 5.72916 9.32218 5.72916 6.41634C5.72916 3.51051 8.09416 1.14551 11 1.14551C13.9058 1.14551 16.2708 3.51051 16.2708 6.41634C16.2708 9.32218 13.9058 11.6872 11 11.6872ZM11 2.52051C8.855 2.52051 7.10416 4.27134 7.10416 6.41634C7.10416 8.56134 8.855 10.3122 11 10.3122C13.145 10.3122 14.8958 8.56134 14.8958 6.41634C14.8958 4.27134 13.145 2.52051 11 2.52051Z" fill="black"/>
<path d="M18.8743 20.8542C18.4985 20.8542 18.1868 20.5425 18.1868 20.1667C18.1868 17.0042 14.9601 14.4375 11.0001 14.4375C7.04014 14.4375 3.81348 17.0042 3.81348 20.1667C3.81348 20.5425 3.50181 20.8542 3.12598 20.8542C2.75014 20.8542 2.43848 20.5425 2.43848 20.1667C2.43848 16.2525 6.27931 13.0625 11.0001 13.0625C15.721 13.0625 19.5618 16.2525 19.5618 20.1667C19.5618 20.5425 19.2501 20.8542 18.8743 20.8542Z" fill="black"/>
</svg>
