<svg width="17" height="23" viewBox="0 0 17 23" fill="none" xmlns="http://www.w3.org/2000/svg">
<path d="M12.7433 10.3939H7.97317C7.8224 10.3939 7.67526 10.408 7.53319 10.435L7.48028 10.2475L5.1079 1.8407C5.1079 1.8407 4.80637 0.52073 6.22414 0.240818C7.64192 -0.0397682 7.94345 1.27953 7.94345 1.27953L10.1883 9.08266C10.5115 9.09885 10.8247 9.12516 11.1342 9.15483L12.628 2.06463C12.628 2.06463 12.7643 0.721727 14.2082 0.847856C15.6513 0.97466 15.5151 2.31756 15.5151 2.31756L14.0183 9.84551L13.8581 10.6508C13.5218 10.4923 13.1463 10.3939 12.7433 10.3939ZM1.38878 9.04489H1.51055C2.27815 9.04489 2.89933 9.6236 2.89933 10.3379V13.1478C2.89933 13.8621 2.27815 14.4408 1.51055 14.4408H1.38878C0.621182 14.4408 0 13.8621 0 13.1478V10.3379C0 9.6236 0.621182 9.04489 1.38878 9.04489ZM6.40318 11.0414L6.36259 11.0832C6.01902 11.44 5.79867 11.9 5.79867 12.4173C5.79867 12.4598 5.80809 12.5003 5.81171 12.5421C5.84361 12.9994 6.03496 13.4135 6.33939 13.7386C6.28793 13.8257 6.22125 13.9025 6.15166 13.9767C5.88637 14.258 5.50656 14.4408 5.07383 14.4408C4.27362 14.4408 3.62417 13.8364 3.62417 13.0918V9.04489C3.62417 8.74744 3.73072 8.47495 3.90613 8.2517C4.16997 7.91648 4.59254 7.69592 5.07383 7.69592C5.87405 7.69592 6.5235 8.30026 6.5235 9.04489V10.9186C6.47929 10.9557 6.44449 11.0016 6.40318 11.0414Z" fill="#F7DECE"/>
<path d="M1.49453 15.1153C2.23676 15.1153 2.88983 14.7605 3.27037 14.2236C3.35953 14.347 3.4668 14.457 3.58277 14.5588C4.4417 15.3109 5.78192 15.263 6.60316 14.5008C6.71333 14.3983 6.82278 14.2951 6.90686 14.1717L6.90468 14.1696C7.05038 14.2472 7.24826 14.4408 7.97309 14.4408H9.81199C9.5438 14.629 9.29881 14.861 9.06976 15.1153C8.17967 16.1048 7.61067 17.5475 7.61067 19.1622C7.61067 19.3484 7.77304 19.4994 7.97309 19.4994C8.17314 19.4994 8.33551 19.3484 8.33551 19.1622C8.33551 17.4436 9.02845 15.9415 10.0584 15.1153C10.589 14.6897 11.2066 14.4408 11.8691 14.4408C12.3859 14.4941 12.483 13.7663 11.9597 13.7663H7.97309C7.17287 13.7663 6.52342 13.162 6.52342 12.4173C6.52342 11.6727 7.17287 11.0684 7.97309 11.0684H13.7718C14.3937 11.0684 14.975 11.4704 15.1584 12.0228L15.9463 14.4408C16.0209 14.6667 16.2935 15.7028 16.2442 15.9186C16.2442 19.1622 12.8403 22.5346 8.69792 22.5346C3.95969 22.5346 0.112997 19.0064 0.0100708 14.6202L0.0202184 14.627C0.393508 14.9271 0.872622 15.1153 1.40465 15.1153H1.49453Z" fill="#F7DECE"/>
</svg>
